<?xml version="1.0" encoding="UTF-8" standalone="no"?><svg xmlns="http://www.w3.org/2000/svg" xmlns:xlink="http://www.w3.org/1999/xlink" fill="#ffffff" height="81.5" preserveAspectRatio="xMidYMid meet" version="1" viewBox="25.5 9.3 48.9 81.5" width="48.9" zoomAndPan="magnify"><g id="change1_1"><path d="M62.3,90.6h12.1c-5.1-4-9-9.7-12-16l0.7-0.9v-2.1h-2.1c-1-2.4-1.9-4.8-2.7-7.3l1.6-1.7v-2.1h-2.7 c-5.6-19.8-5.5-40.2-5.5-40.2c0-1.1,0.7-1.5,0.7-1.5v-2.5l-0.6-1l0.2-1.7h-0.4v0.4h-0.8l-0.3-0.7v-1.5l-0.3-0.2v-2L50,9.3l-0.3,0.3 v2l-0.3,0.2v1.5l-0.3,0.7h-0.8v-0.4h-0.4l0.2,1.7l-0.6,1v2.5c0,0,0.6,0.4,0.7,1.3l0,0v0.3h0c0,0,0.1,20.4-5.5,40.2h-2.7v2.1l1.6,1.7 c-0.8,2.5-1.7,4.9-2.7,7.3h-2.1v2.1l0.7,0.9c-3.1,6.4-7,12-12,16h12.1l0.2,0.1c0,0,1.2-2.1,2.9-6c1.9-2.3,4.8-4.3,9.2-4.3 s7.4,2.1,9.2,4.3c1.7,3.9,2.9,6,2.9,6L62.3,90.6z M47,66c0.3-1.1,0.5-2.3,0.8-3.5h4.5c0.3,1.2,0.5,2.3,0.8,3.5 c0.5,1.8,0.9,3.6,1.5,5.4l0,0.1h-9.1l0-0.1C46,69.7,46.5,67.8,47,66z M38.4,88.8c0.2-0.6,0.6-1.3,1-2.1C39,87.6,38.6,88.2,38.4,88.8 z M61.6,88.8c-0.3-0.6-0.6-1.3-1-2.1C61.1,87.5,61.4,88.2,61.6,88.8z" fill="inherit"/></g></svg>