<?xml version="1.0" encoding="UTF-8" standalone="no"?><svg xmlns="http://www.w3.org/2000/svg" xmlns:xlink="http://www.w3.org/1999/xlink" data-name="Layer 1" fill="#ffffff" height="62" preserveAspectRatio="xMidYMid meet" version="1" viewBox="18.6 1.0 27.0 62.0" width="27" zoomAndPan="magnify"><g id="change1_1"><path d="M35.96853,7.72785c-.02943-.6072.00081-1.216-.02534-1.824a15.21547,15.21547,0,0,0-3.407-.46256c-.16345-1.40727-.29176-2.81863-.47807-4.22344-.01881-.05639-.0564-.17081-.0752-.228-.19449,1.48083-.36611,2.96409-.52711,4.449a16.00792,16.00792,0,0,0-3.41111.47808c-.01716.60066-.01391,1.20133-.01144,1.80282A17.51152,17.51152,0,0,1,35.96853,7.72785Z"/></g><g id="change1_2"><path d="M45.03,11.78623a6.87976,6.87976,0,0,0-2.79168-1.6786,25.40891,25.40891,0,0,0-6.19869-1.30511,42.87919,42.87919,0,0,0-5.69528-.15365,32.86583,32.86583,0,0,0-6.99793.966,12.3643,12.3643,0,0,0-3.52961,1.44241,2.48548,2.48548,0,0,0-1.25773,1.69085,1.77626,1.77626,0,0,0,.787,1.44977,10.55183,10.55183,0,0,0,3.8279,1.68758c-.416.25089-.99375.5459-.9578,1.1147.06948.53528.61783.80006,1.04361,1.02889a15.08185,15.08185,0,0,0,4.51929,1.091q.79311,6.00909,1.58132,12.019a19.3843,19.3843,0,0,1,.05641,2.124c-.00491,2.37079-.00082,4.74157-.00409,7.11236a5.901,5.901,0,0,1-.10216,1.051q-1.52,10.79112-3.03927,21.58386c3.814-.00654,7.628.00164,11.442-.00245-.961-7.05842-1.95072-14.11356-2.86519-21.17853a11.25178,11.25178,0,0,1-.15772-1.53475c-.00491-2.80636.00243-5.61274-.00246-8.4191a8.61558,8.61558,0,0,1,.10541-1.15884q.71713-5.80315,1.50453-11.59895a16.3048,16.3048,0,0,0,4.18013-.96106,2.7811,2.7811,0,0,0,1.20868-.827.63494.63494,0,0,0,.04005-.6881c-.18142-.38327-.60393-.53529-.93736-.75184a22.26246,22.26246,0,0,0,2.38549-.832,4.35173,4.35173,0,0,0,2.10193-1.58216A1.46658,1.46658,0,0,0,45.03,11.78623ZM26.14951,17.18892a.70765.70765,0,0,1-.21412-.27295,2.80685,2.80685,0,0,1,1.489-.69954c.07111.50586.112,1.01581.17244,1.52249A4.50481,4.50481,0,0,1,26.14951,17.18892Zm9.37608,43.93022c-2.3528.01716-4.70561.00327-7.05842.01144a10.54946,10.54946,0,0,0,.16917-1.09509c2.24329.01308,4.4874-.0049,6.73153.01144C35.42017,60.40406,35.44633,60.7661,35.52559,61.11914ZM35.135,58.19509c-2.07576.01308-4.15236-.00408-6.22811.00409.15608-1.14249.30237-2.28661.4699-3.42746,1.76276.0098,3.52471.00164,5.28748.00572C34.80806,55.9183,34.95272,57.06,35.135,58.19509ZM31.33729,32.14342c.492-.00408.98477-.00244,1.47674-.00326.00162,1.23319-.00164,2.4664-.00084,3.69878-.49522-.00245-.99047-.00653-1.4849,0C31.34709,34.60738,31.34463,33.375,31.33729,32.14342Zm.00573,7.98516c-.00737-.81233.00816-1.62465-.00573-2.437.49279.009.98556.00245,1.47836.00653.009,1.1858-.04087,2.374.018,3.559-.51729-.0049-1.03542-.01061-1.55273.00082A5.38244,5.38244,0,0,0,31.343,40.12858Zm1.7227,2.98044c.20758,1.33291.35712,2.67317.54184,4.00852q-1.58505-.00858-3.17-.00246c.20185-1.32881.36939-2.66253.56715-3.99216C31.69114,43.11147,32.37844,43.11393,33.06572,43.109Zm-.15037-12.76677c-.581-.00735-1.1621-.00653-1.74314-.027-.514-3.881-.99866-7.76615-1.52088-11.64554a27.74828,27.74828,0,0,0,4.76937.00654C33.93852,22.56712,33.40161,26.45142,32.91535,30.34225Zm-2.69686,18.583c1.20377-.00573,2.40839-.01144,3.61217-.00491.21247,1.33209.35223,2.67561.55979,4.00934-1.57969.00735-3.1594-.01634-4.73912.01225C29.8483,51.605,30.00684,50.2606,30.21849,48.92525Zm4.346-31.42577a18.73728,18.73728,0,0,1-5.07828-.00818c-.06782-.52221-.11277-1.046-.18142-1.56745a27.99019,27.99019,0,0,1,5.46319-.00409C34.69039,16.44526,34.63644,16.97318,34.56453,17.49948Zm1.87063.24925c.09072-.505.12913-1.01744.19942-1.52495a2.225,2.225,0,0,1,1.44568.69465C37.73784,17.4815,37.004,17.54279,36.43516,17.74873ZM42.593,13.48606a2.37618,2.37618,0,0,1-1.01908.76.81138.81138,0,0,0-.27869-.6832,5.66546,5.66546,0,0,0-2.31847-1.118,25.70638,25.70638,0,0,0-5.77375-.787,33.464,33.464,0,0,0-6.30247.38655,15.11082,15.11082,0,0,0-2.72383.65215,4.57651,4.57651,0,0,0-1.44895.77473,1.11593,1.11593,0,0,0-.37755.7633,2.82991,2.82991,0,0,1-.94636-.72162.78868.78868,0,0,1,.14547-1.05667,5.21556,5.21556,0,0,1,1.82813-.96106,23.6336,23.6336,0,0,1,5.987-1.0624,37.65023,37.65023,0,0,1,7.01266.15446,19.63658,19.63658,0,0,1,4.86907,1.14738,3.02964,3.02964,0,0,1,1.36068.9341A.7131.7131,0,0,1,42.593,13.48606Z"/></g></svg>